<svg width="256" height="256" viewBox="0 0 256 256" fill="none" xmlns="http://www.w3.org/2000/svg">
<rect x="-8" y="128" width="192" height="192" rx="24" transform="rotate(-45 -8 128)" fill="#256132"/>
<path d="M62.0597 115V108.455C62.0597 106.523 62.4233 104.489 63.1506 102.352C63.8778 100.216 64.8892 98.1705 66.1847 96.2159C67.4801 94.2614 69.0028 92.5909 70.7528 91.2045L75.7983 94.8182C74.4119 96.8409 73.2301 98.9545 72.2528 101.159C71.2756 103.364 70.7869 105.761 70.7869 108.352V115H62.0597ZM79.446 115V108.455C79.446 106.523 79.8097 104.489 80.5369 102.352C81.2642 100.216 82.2756 98.1705 83.571 96.2159C84.8665 94.2614 86.3892 92.5909 88.1392 91.2045L93.1847 94.8182C91.7983 96.8409 90.6165 98.9545 89.6392 101.159C88.6619 103.364 88.1733 105.761 88.1733 108.352V115H79.446ZM99.7557 163.648C97.892 163.648 96.2898 162.989 94.9489 161.67C93.608 160.33 92.9375 158.716 92.9375 156.83C92.9375 154.966 93.608 153.375 94.9489 152.057C96.2898 150.716 97.892 150.045 99.7557 150.045C101.619 150.045 103.222 150.716 104.562 152.057C105.903 153.375 106.574 154.966 106.574 156.83C106.574 158.08 106.256 159.227 105.619 160.273C105.006 161.295 104.188 162.114 103.165 162.727C102.142 163.341 101.006 163.648 99.7557 163.648ZM126.943 163.648C125.08 163.648 123.477 162.989 122.136 161.67C120.795 160.33 120.125 158.716 120.125 156.83C120.125 154.966 120.795 153.375 122.136 152.057C123.477 150.716 125.08 150.045 126.943 150.045C128.807 150.045 130.409 150.716 131.75 152.057C133.091 153.375 133.761 154.966 133.761 156.83C133.761 158.08 133.443 159.227 132.807 160.273C132.193 161.295 131.375 162.114 130.352 162.727C129.33 163.341 128.193 163.648 126.943 163.648ZM154.131 163.648C152.267 163.648 150.665 162.989 149.324 161.67C147.983 160.33 147.312 158.716 147.312 156.83C147.312 154.966 147.983 153.375 149.324 152.057C150.665 150.716 152.267 150.045 154.131 150.045C155.994 150.045 157.597 150.716 158.938 152.057C160.278 153.375 160.949 154.966 160.949 156.83C160.949 158.08 160.631 159.227 159.994 160.273C159.381 161.295 158.562 162.114 157.54 162.727C156.517 163.341 155.381 163.648 154.131 163.648ZM176.52 93.1818V99.7273C176.52 101.659 176.156 103.693 175.429 105.83C174.724 107.943 173.724 109.977 172.429 111.932C171.134 113.886 169.611 115.568 167.861 116.977L162.815 113.364C164.156 111.409 165.315 109.33 166.293 107.125C167.293 104.92 167.793 102.489 167.793 99.8295V93.1818H176.52ZM193.872 93.1818V99.7273C193.872 101.659 193.509 103.693 192.781 105.83C192.077 107.943 191.077 109.977 189.781 111.932C188.486 113.886 186.963 115.568 185.213 116.977L180.168 113.364C181.509 111.409 182.668 109.33 183.645 107.125C184.645 104.92 185.145 102.489 185.145 99.8295V93.1818H193.872Z" fill="white"/>
</svg>
